<mxfile host="app.diagrams.net" agent="Mozilla/5.0 (Windows NT 10.0; Win64; x64) AppleWebKit/537.36 (KHTML, like Gecko) Chrome/134.0.0.0 Safari/537.36" version="26.1.0">
  <diagram name="PÃ¡gina-1" id="RUgeSos9rVjm8xPNp1r1">
    <mxGraphModel dx="794" dy="454" grid="1" gridSize="10" guides="1" tooltips="1" connect="1" arrows="1" fold="1" page="1" pageScale="1" pageWidth="827" pageHeight="1169" math="0" shadow="0">
      <root>
        <mxCell id="0" />
        <mxCell id="1" parent="0" />
        <mxCell id="bqOJydWZO2gNVTQoUI_L-15" style="edgeStyle=orthogonalEdgeStyle;rounded=0;orthogonalLoop=1;jettySize=auto;html=1;entryX=0;entryY=0.5;entryDx=0;entryDy=0;" edge="1" parent="1" source="bqOJydWZO2gNVTQoUI_L-1" target="bqOJydWZO2gNVTQoUI_L-14">
          <mxGeometry relative="1" as="geometry" />
        </mxCell>
        <mxCell id="bqOJydWZO2gNVTQoUI_L-1" value="" style="rounded=0;whiteSpace=wrap;html=1;" vertex="1" parent="1">
          <mxGeometry x="110" y="180" width="120" height="70" as="geometry" />
        </mxCell>
        <mxCell id="bqOJydWZO2gNVTQoUI_L-2" value="V&lt;span style=&quot;background-color: transparent; color: light-dark(rgb(0, 0, 0), rgb(255, 255, 255));&quot;&gt;isitante&lt;/span&gt;" style="text;html=1;align=center;verticalAlign=middle;whiteSpace=wrap;rounded=0;" vertex="1" parent="1">
          <mxGeometry x="140" y="200" width="60" height="30" as="geometry" />
        </mxCell>
        <mxCell id="bqOJydWZO2gNVTQoUI_L-3" value="" style="rhombus;whiteSpace=wrap;html=1;" vertex="1" parent="1">
          <mxGeometry x="250" y="170" width="80" height="80" as="geometry" />
        </mxCell>
        <mxCell id="bqOJydWZO2gNVTQoUI_L-7" style="edgeStyle=orthogonalEdgeStyle;rounded=0;orthogonalLoop=1;jettySize=auto;html=1;entryX=0.25;entryY=1;entryDx=0;entryDy=0;" edge="1" parent="1" source="bqOJydWZO2gNVTQoUI_L-4" target="bqOJydWZO2gNVTQoUI_L-1">
          <mxGeometry relative="1" as="geometry" />
        </mxCell>
        <mxCell id="bqOJydWZO2gNVTQoUI_L-4" value="CPF" style="ellipse;whiteSpace=wrap;html=1;align=center;" vertex="1" parent="1">
          <mxGeometry x="30" y="280" width="100" height="40" as="geometry" />
        </mxCell>
        <mxCell id="bqOJydWZO2gNVTQoUI_L-6" style="edgeStyle=orthogonalEdgeStyle;rounded=0;orthogonalLoop=1;jettySize=auto;html=1;entryX=0.5;entryY=1;entryDx=0;entryDy=0;" edge="1" parent="1" source="bqOJydWZO2gNVTQoUI_L-5" target="bqOJydWZO2gNVTQoUI_L-1">
          <mxGeometry relative="1" as="geometry" />
        </mxCell>
        <mxCell id="bqOJydWZO2gNVTQoUI_L-5" value="Foto" style="ellipse;whiteSpace=wrap;html=1;align=center;" vertex="1" parent="1">
          <mxGeometry x="120" y="300" width="70" height="40" as="geometry" />
        </mxCell>
        <mxCell id="bqOJydWZO2gNVTQoUI_L-8" value="Telefone" style="ellipse;whiteSpace=wrap;html=1;align=center;" vertex="1" parent="1">
          <mxGeometry x="180" y="280" width="100" height="40" as="geometry" />
        </mxCell>
        <mxCell id="bqOJydWZO2gNVTQoUI_L-9" style="edgeStyle=orthogonalEdgeStyle;rounded=0;orthogonalLoop=1;jettySize=auto;html=1;entryX=0.656;entryY=1.029;entryDx=0;entryDy=0;entryPerimeter=0;" edge="1" parent="1" source="bqOJydWZO2gNVTQoUI_L-8" target="bqOJydWZO2gNVTQoUI_L-1">
          <mxGeometry relative="1" as="geometry" />
        </mxCell>
        <mxCell id="bqOJydWZO2gNVTQoUI_L-10" value="ID_Visitante" style="ellipse;whiteSpace=wrap;html=1;align=center;" vertex="1" parent="1">
          <mxGeometry x="50" y="110" width="100" height="40" as="geometry" />
        </mxCell>
        <mxCell id="bqOJydWZO2gNVTQoUI_L-11" style="edgeStyle=orthogonalEdgeStyle;rounded=0;orthogonalLoop=1;jettySize=auto;html=1;entryX=0.322;entryY=0.019;entryDx=0;entryDy=0;entryPerimeter=0;" edge="1" parent="1" source="bqOJydWZO2gNVTQoUI_L-10" target="bqOJydWZO2gNVTQoUI_L-1">
          <mxGeometry relative="1" as="geometry" />
        </mxCell>
        <mxCell id="bqOJydWZO2gNVTQoUI_L-12" value="Nome" style="ellipse;whiteSpace=wrap;html=1;align=center;" vertex="1" parent="1">
          <mxGeometry x="150" y="110" width="100" height="40" as="geometry" />
        </mxCell>
        <mxCell id="bqOJydWZO2gNVTQoUI_L-13" style="edgeStyle=orthogonalEdgeStyle;rounded=0;orthogonalLoop=1;jettySize=auto;html=1;entryX=0.633;entryY=0.01;entryDx=0;entryDy=0;entryPerimeter=0;" edge="1" parent="1" source="bqOJydWZO2gNVTQoUI_L-12" target="bqOJydWZO2gNVTQoUI_L-1">
          <mxGeometry relative="1" as="geometry" />
        </mxCell>
        <mxCell id="bqOJydWZO2gNVTQoUI_L-41" style="edgeStyle=orthogonalEdgeStyle;rounded=0;orthogonalLoop=1;jettySize=auto;html=1;entryX=0;entryY=0.5;entryDx=0;entryDy=0;" edge="1" parent="1" source="bqOJydWZO2gNVTQoUI_L-35" target="bqOJydWZO2gNVTQoUI_L-36">
          <mxGeometry relative="1" as="geometry" />
        </mxCell>
        <mxCell id="bqOJydWZO2gNVTQoUI_L-14" value="" style="rounded=0;whiteSpace=wrap;html=1;" vertex="1" parent="1">
          <mxGeometry x="354" y="180" width="120" height="70" as="geometry" />
        </mxCell>
        <mxCell id="bqOJydWZO2gNVTQoUI_L-16" value="Visita" style="text;html=1;align=center;verticalAlign=middle;whiteSpace=wrap;rounded=0;" vertex="1" parent="1">
          <mxGeometry x="383.5" y="200" width="60" height="30" as="geometry" />
        </mxCell>
        <mxCell id="bqOJydWZO2gNVTQoUI_L-21" value="" style="edgeStyle=orthogonalEdgeStyle;rounded=0;orthogonalLoop=1;jettySize=auto;html=1;" edge="1" parent="1" source="bqOJydWZO2gNVTQoUI_L-17" target="bqOJydWZO2gNVTQoUI_L-16">
          <mxGeometry relative="1" as="geometry" />
        </mxCell>
        <mxCell id="bqOJydWZO2gNVTQoUI_L-17" value="ID_Visita" style="ellipse;whiteSpace=wrap;html=1;align=center;" vertex="1" parent="1">
          <mxGeometry x="330" y="100" width="100" height="40" as="geometry" />
        </mxCell>
        <mxCell id="bqOJydWZO2gNVTQoUI_L-22" value="" style="edgeStyle=orthogonalEdgeStyle;rounded=0;orthogonalLoop=1;jettySize=auto;html=1;" edge="1" parent="1" source="bqOJydWZO2gNVTQoUI_L-18" target="bqOJydWZO2gNVTQoUI_L-16">
          <mxGeometry relative="1" as="geometry" />
        </mxCell>
        <mxCell id="bqOJydWZO2gNVTQoUI_L-18" value="Data" style="ellipse;whiteSpace=wrap;html=1;align=center;" vertex="1" parent="1">
          <mxGeometry x="430" y="100" width="100" height="40" as="geometry" />
        </mxCell>
        <mxCell id="bqOJydWZO2gNVTQoUI_L-28" value="" style="edgeStyle=orthogonalEdgeStyle;rounded=0;orthogonalLoop=1;jettySize=auto;html=1;" edge="1" parent="1" source="bqOJydWZO2gNVTQoUI_L-25" target="bqOJydWZO2gNVTQoUI_L-16">
          <mxGeometry relative="1" as="geometry" />
        </mxCell>
        <mxCell id="bqOJydWZO2gNVTQoUI_L-25" value="Hora" style="ellipse;whiteSpace=wrap;html=1;align=center;" vertex="1" parent="1">
          <mxGeometry x="383.5" y="290" width="70" height="40" as="geometry" />
        </mxCell>
        <mxCell id="bqOJydWZO2gNVTQoUI_L-34" value="" style="edgeStyle=orthogonalEdgeStyle;rounded=0;orthogonalLoop=1;jettySize=auto;html=1;" edge="1" parent="1" source="bqOJydWZO2gNVTQoUI_L-30" target="bqOJydWZO2gNVTQoUI_L-16">
          <mxGeometry relative="1" as="geometry" />
        </mxCell>
        <mxCell id="bqOJydWZO2gNVTQoUI_L-30" value="ID_Visitante" style="ellipse;whiteSpace=wrap;html=1;align=center;" vertex="1" parent="1">
          <mxGeometry x="300" y="270" width="100" height="40" as="geometry" />
        </mxCell>
        <mxCell id="bqOJydWZO2gNVTQoUI_L-33" value="" style="edgeStyle=orthogonalEdgeStyle;rounded=0;orthogonalLoop=1;jettySize=auto;html=1;" edge="1" parent="1" source="bqOJydWZO2gNVTQoUI_L-32" target="bqOJydWZO2gNVTQoUI_L-16">
          <mxGeometry relative="1" as="geometry" />
        </mxCell>
        <mxCell id="bqOJydWZO2gNVTQoUI_L-32" value="ID_Morador" style="ellipse;whiteSpace=wrap;html=1;align=center;" vertex="1" parent="1">
          <mxGeometry x="430" y="270" width="100" height="40" as="geometry" />
        </mxCell>
        <mxCell id="bqOJydWZO2gNVTQoUI_L-36" value="" style="rounded=0;whiteSpace=wrap;html=1;" vertex="1" parent="1">
          <mxGeometry x="590" y="175" width="120" height="75" as="geometry" />
        </mxCell>
        <mxCell id="bqOJydWZO2gNVTQoUI_L-37" value="Morador" style="text;html=1;align=center;verticalAlign=middle;whiteSpace=wrap;rounded=0;" vertex="1" parent="1">
          <mxGeometry x="620" y="200" width="60" height="30" as="geometry" />
        </mxCell>
        <mxCell id="bqOJydWZO2gNVTQoUI_L-39" value="" style="edgeStyle=orthogonalEdgeStyle;rounded=0;orthogonalLoop=1;jettySize=auto;html=1;" edge="1" parent="1" source="bqOJydWZO2gNVTQoUI_L-38" target="bqOJydWZO2gNVTQoUI_L-37">
          <mxGeometry relative="1" as="geometry" />
        </mxCell>
        <mxCell id="bqOJydWZO2gNVTQoUI_L-38" value="ID_morador" style="ellipse;whiteSpace=wrap;html=1;align=center;" vertex="1" parent="1">
          <mxGeometry x="570" y="100" width="100" height="40" as="geometry" />
        </mxCell>
        <mxCell id="bqOJydWZO2gNVTQoUI_L-42" value="" style="edgeStyle=orthogonalEdgeStyle;rounded=0;orthogonalLoop=1;jettySize=auto;html=1;entryX=0;entryY=0.5;entryDx=0;entryDy=0;" edge="1" parent="1" source="bqOJydWZO2gNVTQoUI_L-14" target="bqOJydWZO2gNVTQoUI_L-35">
          <mxGeometry relative="1" as="geometry">
            <mxPoint x="474" y="215" as="sourcePoint" />
            <mxPoint x="600" y="218" as="targetPoint" />
          </mxGeometry>
        </mxCell>
        <mxCell id="bqOJydWZO2gNVTQoUI_L-35" value="" style="rhombus;whiteSpace=wrap;html=1;" vertex="1" parent="1">
          <mxGeometry x="500" y="175" width="80" height="80" as="geometry" />
        </mxCell>
        <mxCell id="bqOJydWZO2gNVTQoUI_L-44" value="" style="edgeStyle=orthogonalEdgeStyle;rounded=0;orthogonalLoop=1;jettySize=auto;html=1;" edge="1" parent="1" source="bqOJydWZO2gNVTQoUI_L-43" target="bqOJydWZO2gNVTQoUI_L-37">
          <mxGeometry relative="1" as="geometry" />
        </mxCell>
        <mxCell id="bqOJydWZO2gNVTQoUI_L-43" value="CPF" style="ellipse;whiteSpace=wrap;html=1;align=center;" vertex="1" parent="1">
          <mxGeometry x="680" y="100" width="60" height="40" as="geometry" />
        </mxCell>
        <mxCell id="bqOJydWZO2gNVTQoUI_L-55" style="edgeStyle=orthogonalEdgeStyle;rounded=0;orthogonalLoop=1;jettySize=auto;html=1;" edge="1" parent="1" source="bqOJydWZO2gNVTQoUI_L-45">
          <mxGeometry relative="1" as="geometry">
            <mxPoint x="650" y="250" as="targetPoint" />
          </mxGeometry>
        </mxCell>
        <mxCell id="bqOJydWZO2gNVTQoUI_L-45" value="Telefone" style="ellipse;whiteSpace=wrap;html=1;align=center;" vertex="1" parent="1">
          <mxGeometry x="550" y="260" width="60" height="40" as="geometry" />
        </mxCell>
        <mxCell id="bqOJydWZO2gNVTQoUI_L-54" style="edgeStyle=orthogonalEdgeStyle;rounded=0;orthogonalLoop=1;jettySize=auto;html=1;entryX=0.5;entryY=1;entryDx=0;entryDy=0;" edge="1" parent="1" source="bqOJydWZO2gNVTQoUI_L-46" target="bqOJydWZO2gNVTQoUI_L-36">
          <mxGeometry relative="1" as="geometry" />
        </mxCell>
        <mxCell id="bqOJydWZO2gNVTQoUI_L-46" value="Bloco" style="ellipse;whiteSpace=wrap;html=1;align=center;" vertex="1" parent="1">
          <mxGeometry x="600" y="310" width="60" height="40" as="geometry" />
        </mxCell>
        <mxCell id="bqOJydWZO2gNVTQoUI_L-53" style="edgeStyle=orthogonalEdgeStyle;rounded=0;orthogonalLoop=1;jettySize=auto;html=1;" edge="1" parent="1" source="bqOJydWZO2gNVTQoUI_L-47">
          <mxGeometry relative="1" as="geometry">
            <mxPoint x="650" y="250" as="targetPoint" />
          </mxGeometry>
        </mxCell>
        <mxCell id="bqOJydWZO2gNVTQoUI_L-47" value="Nome" style="ellipse;whiteSpace=wrap;html=1;align=center;" vertex="1" parent="1">
          <mxGeometry x="700" y="260" width="50" height="40" as="geometry" />
        </mxCell>
        <mxCell id="bqOJydWZO2gNVTQoUI_L-52" style="edgeStyle=orthogonalEdgeStyle;rounded=0;orthogonalLoop=1;jettySize=auto;html=1;entryX=0.5;entryY=1;entryDx=0;entryDy=0;" edge="1" parent="1" source="bqOJydWZO2gNVTQoUI_L-48" target="bqOJydWZO2gNVTQoUI_L-36">
          <mxGeometry relative="1" as="geometry" />
        </mxCell>
        <mxCell id="bqOJydWZO2gNVTQoUI_L-48" value="Ap" style="ellipse;whiteSpace=wrap;html=1;align=center;" vertex="1" parent="1">
          <mxGeometry x="660" y="310" width="60" height="40" as="geometry" />
        </mxCell>
        <mxCell id="bqOJydWZO2gNVTQoUI_L-56" value="&lt;h1 style=&quot;margin-top: 0px;&quot;&gt;Diagrama ER Projeto Controle de Acesso&lt;/h1&gt;&lt;p&gt;Desenvolvido por Nathan Manoel Mello e Arthur Gabriel Nascimento.&lt;/p&gt;" style="text;html=1;whiteSpace=wrap;overflow=hidden;rounded=0;" vertex="1" parent="1">
          <mxGeometry x="30" y="450" width="160" height="180" as="geometry" />
        </mxCell>
      </root>
    </mxGraphModel>
  </diagram>
</mxfile>
